HIERARCHY
ROOT Hips
{
    OFFSET 0.000000 0.000000 0.000000
    CHANNELS 6 Xposition Yposition Zposition Zrotation Xrotation Yrotation
    JOINT Spine
    {
        OFFSET -0.000000 14.517291 0.000000
        CHANNELS 3 Zrotation Xrotation Yrotation
        JOINT Spine1
        {
            OFFSET -0.000000 37.558300 0.000000
            CHANNELS 3 Zrotation Xrotation Yrotation
            JOINT Neck
            {
                OFFSET -0.000000 37.404057 3.400369
                CHANNELS 3 Zrotation Xrotation Yrotation
                JOINT Head
                {
                    OFFSET -0.000000 24.785618 -3.540803
                    CHANNELS 3 Zrotation Xrotation Yrotation
                    End Site
                    {
                        OFFSET -0.000000 35.408028 0.000000
                    }
                }
            }
            JOINT LeftShoulder
            {
                OFFSET 6.992933 33.973492 -0.192664
                CHANNELS 3 Zrotation Xrotation Yrotation
                JOINT LeftArm
                {
                    OFFSET 21.527611 0.000000 0.000000
                    CHANNELS 3 Zrotation Xrotation Yrotation
                    JOINT LeftForeArm
                    {
                        OFFSET 56.353916 0.000000 0.000000
                        CHANNELS 3 Zrotation Xrotation Yrotation
                        JOINT LeftHand
                        {
                            OFFSET 47.774071 0.000000 0.000000
                            CHANNELS 3 Zrotation Xrotation Yrotation
                            End Site
                            {
                                OFFSET 26.556021 0.000000 0.000000
                            }
                        }
                    }
                }
            }
            JOINT RightShoulder
            {
                OFFSET -7.065357 33.973492 -0.192664
                CHANNELS 3 Zrotation Xrotation Yrotation
                JOINT RightArm
                {
                    OFFSET -21.527611 0.000000 0.000000
                    CHANNELS 3 Zrotation Xrotation Yrotation
                    JOINT RightForeArm
                    {
                        OFFSET -56.353916 0.000000 0.000000
                        CHANNELS 3 Zrotation Xrotation Yrotation
                        JOINT RightHand
                        {
                            OFFSET -47.774071 0.000000 0.000000
                            CHANNELS 3 Zrotation Xrotation Yrotation
                            End Site
                            {
                                OFFSET -26.556021 0.000000 0.000000
                            }
                        }
                    }
                }
            }
        }
    }
    JOINT LeftUpLeg
    {
        OFFSET 17.704014 0.000000 0.000000
        CHANNELS 3 Zrotation Xrotation Yrotation
        JOINT LeftLeg
        {
            OFFSET -0.000000 -81.181816 0.000000
            CHANNELS 3 Zrotation Xrotation Yrotation
            JOINT LeftFoot
            {
                OFFSET -0.000000 -62.821102 0.000000
                CHANNELS 3 Zrotation Xrotation Yrotation
                JOINT LeftToeBase
                {
                    OFFSET -0.000000 -11.507608 26.556021
                    CHANNELS 3 Zrotation Xrotation Yrotation
                    End Site
                    {
                        OFFSET -0.000000 0.000000 7.081605
                    }
                }
            }
        }
    }
    JOINT RightUpLeg
    {
        OFFSET -17.704014 0.000000 0.000000
        CHANNELS 3 Zrotation Xrotation Yrotation
        JOINT RightLeg
        {
            OFFSET -0.000000 -81.181816 0.000000
            CHANNELS 3 Zrotation Xrotation Yrotation
            JOINT RightFoot
            {
                OFFSET -0.000000 -62.821102 0.000000
                CHANNELS 3 Zrotation Xrotation Yrotation
                JOINT RightToeBase
                {
                    OFFSET -0.000000 -11.507608 26.556021
                    CHANNELS 3 Zrotation Xrotation Yrotation
                    End Site
                    {
                        OFFSET -0.000000 0.000000 7.081605
                    }
                }
            }
        }
    }
}
MOTION
Frames:    5
Frame Time:    0.008333
19.968948    150.407745    -99.805397    -0.230654    -27.065605    20.485123    -2.075635    -4.327394    1.291929    -3.683106    3.493723    0.563002    7.572823    -0.529814    -4.349196    10.627566    16.916122    -5.765502    2.994662    9.239410    -16.613750    -27.817471    25.259052    -54.845257    0.204813    -9.234493    -94.459084    12.982609    -10.238316    -10.864272    -8.060241    2.551353    -0.607299    31.114914    -15.279606    64.626106    -22.872431    -19.996380    66.777283    -1.896265    -5.640851    35.377079    12.345634    16.421791    -0.054174    -14.219260    47.995613    -19.173763    25.172323    -32.806499    50.116508    0.000000    0.000000    0.000000    -11.474694    -7.014269    -1.303954    16.162928    35.352695    -12.045416    11.453571    9.203407    -16.267799    0.000000    0.000000    0.000000    
19.995729    150.408691    -99.783157    -0.227159    -27.041653    20.467262    -2.107271    -4.315979    1.287162    -3.648045    3.489384    0.560444    7.554477    -0.508081    -4.371965    10.644165    16.909378    -5.784455    2.974206    9.233677    -16.605526    -27.817833    25.250319    -54.846611    0.209394    -9.237504    -94.450020    13.021027    -10.240410    -10.868526    -8.063051    2.552150    -0.620014    31.129496    -15.267552    64.639572    -22.879185    -19.998144    66.755119    -1.873477    -5.637374    35.383823    12.321840    16.418468    -0.013558    -14.194699    47.996372    -19.175432    25.117050    -32.832970    50.086777    0.000000    0.000000    0.000000    -11.493361    -7.026523    -1.278287    16.178308    35.349113    -12.030811    11.455278    9.179884    -16.295053    0.000000    0.000000    0.000000    
20.014376    150.410767    -99.760971    -0.236940    -27.023224    20.460714    -2.125326    -4.303601    1.276082    -3.617498    3.485457    0.555946    7.544554    -0.499180    -4.396098    10.640347    16.930222    -5.809533    2.963504    9.222387    -16.612003    -27.835184    25.220564    -54.837547    0.247730    -9.203370    -94.424988    13.037699    -10.160490    -10.807874    -8.069125    2.558855    -0.639854    31.155741    -15.260255    64.656036    -22.898968    -19.977907    66.726379    -1.902238    -5.619555    35.368923    12.318325    16.399433    0.007849    -14.167231    48.021389    -19.168633    25.054287    -32.868568    50.035053    0.000000    0.000000    0.000000    -11.497572    -7.030315    -1.260955    16.195324    35.339333    -12.044029    11.446853    9.161203    -16.277266    0.000000    0.000000    0.000000    
20.030590    150.413818    -99.741997    -0.245595    -26.999022    20.450691    -2.141249    -4.291916    1.269987    -3.597991    3.476043    0.553074    7.552436    -0.489322    -4.411133    10.616534    16.928177    -5.825417    2.957700    9.204007    -16.636972    -27.870583    25.194437    -54.799610    0.238449    -9.178642    -94.415977    13.063698    -10.150220    -10.825968    -8.064715    2.560128    -0.654852    31.150055    -15.225651    64.662468    -22.942278    -20.008789    66.681145    -1.864248    -5.623909    35.397339    12.313557    16.375198    0.018416    -14.172956    48.036362    -19.173712    25.015755    -32.878235    50.036804    0.000000    0.000000    0.000000    -11.499692    -7.044844    -1.256606    16.192207    35.339684    -12.033472    11.438343    9.143622    -16.279446    0.000000    0.000000    0.000000    
20.043171    150.415451    -99.726570    -0.263169    -26.972639    20.441435    -2.140610    -4.287640    1.256999    -3.593214    3.471824    0.548455    7.555497    -0.523988    -4.396253    10.622880    16.996569    -5.819386    2.949884    9.190195    -16.646252    -27.872538    25.188370    -54.775295    0.203932    -9.212286    -94.424431    13.050517    -10.216619    -10.803356    -8.062841    2.556395    -0.652861    31.162474    -15.210102    64.663139    -22.943481    -20.029106    66.671036    -1.862538    -5.646754    35.385754    12.324520    16.343769    -0.006076    -14.224319    48.047226    -19.130062    24.995474    -32.876305    50.027832    0.000000    0.000000    0.000000    -11.498523    -7.064810    -1.257537    16.187963    35.338181    -12.029951    11.447628    9.139759    -16.263416    0.000000    0.000000    0.000000    
